# xmcd CD database file generated by Grip 3.2.0
# 
# Track frame offsets:
#       150
#       21262
#       44054
#       61158
#       80312
#       118364
#       136895
#       167438
#       187077
#       218426
#       232136
# 
# Disc length: 3287 seconds
# 
# Revision: 6
# Processed by: cddbd v1.5.2PL0 Copyright (c) Steve Scherf et al.
# Submitted via: Grip 3.2.0
# 
DISCID=990cd50b
DTITLE=The BossHoss - Stallion Battalion (Live from Cologne) - CD1
DYEAR=2008
DGENRE=Other
TTITLE0=Stallion Battalion
TTITLE1=Omniscient Lover
TTITLE2=I'm On A High
TTITLE3=Monkey Business
TTITLE4=Hey Joe
TTITLE5=Rodeo Queen
TTITLE6=Polk Salad Annie
TTITLE7=I Say A Little Prayer (Acoustic)
TTITLE8=High (Accoustic)
TTITLE9=Rodeo Radio
TTITLE10=Jumpin' Around
EXTD=YEAR: 2008
EXTT0=
EXTT1=
EXTT2=
EXTT3=
EXTT4=
EXTT5=
EXTT6=
EXTT7=
EXTT8=
EXTT9=
EXTT10=
PLAYORDER=
